<svg width="59" height="58" viewBox="0 0 59 58" fill="none" xmlns="http://www.w3.org/2000/svg">
    <rect x="48.7744" y="7.99414" width="2.44172" height="13.5938" rx="1.22086" transform="rotate(18.7429 48.7744 7.99414)" fill="#7D4D2B"/>
    <rect x="51.6855" y="11.6191" width="2.44172" height="4.74467" rx="1.22086" transform="rotate(73.9783 51.6855 11.6191)" fill="#7D4D2B"/>
    <rect x="43.5293" y="10.7129" width="2.44172" height="4.74467" rx="1.22086" transform="rotate(73.9783 43.5293 10.7129)" fill="#7D4D2B"/>
    <rect x="39.7119" y="7.99414" width="2.44172" height="13.5938" rx="1.22086" transform="rotate(18.7429 39.7119 7.99414)" fill="#7D4D2B"/>
    <path d="M52.0041 20.9958C50.5637 19.0753 47.2809 19.7969 45.2365 20.6233C44.7242 20.8304 44.4273 21.3535 44.4597 21.9051L45.7395 43.6605C45.7692 44.1656 46.0726 44.614 46.5303 44.8294L54.1721 48.4255C55.33 48.9704 56.5424 47.7839 56.0227 46.6145L55.3616 45.1271C55.0567 44.4411 55.4665 43.6493 56.2027 43.502C57.0934 43.3239 57.4516 42.244 56.8439 41.5689L53.375 37.7145C52.8464 37.1272 53.2632 36.1913 54.0533 36.1913C54.7138 36.1913 55.1555 35.5115 54.8873 34.908L53.8451 32.563C53.3777 31.5113 54.9406 31.1048 55.4376 30.0667C55.4508 30.0392 55.4577 30.0087 55.4577 29.9749C55.4577 29.5591 53.8932 27.5528 52.5302 25.8983C52.0573 25.3244 52.4622 24.4492 53.2058 24.4492C53.6866 24.4492 53.9834 24.0694 53.7591 23.6443C53.4637 23.0844 52.9263 22.2254 52.0041 20.9958Z" fill="#FFBC02"/>
    <path d="M9.0625 38.8066H3.17188C2.41667 38.8066 0.90625 39.4297 0.90625 41.9219C0.90625 44.4141 2.41667 44.6217 3.17188 44.4141H5.89062C6.67546 44.4141 8.24513 44.7879 8.24513 46.2832C8.24513 47.7785 7.25 48.7754 5.89062 48.7754" stroke="#FFBC02" stroke-width="1.8125" stroke-linecap="round"/>
    <path d="M40.7529 18.8691C46.7746 18.8691 51.6562 23.7508 51.6562 29.7725V34.4062C51.656 41.8417 45.6279 47.8691 38.1924 47.8691H9.79883C7.39013 47.8691 5.4375 45.9165 5.4375 43.5078C5.43758 38.9095 9.16531 35.1816 13.7637 35.1816H20.1318C21.4512 25.959 29.3813 18.8691 38.9688 18.8691H40.7529Z" fill="#00B825"/>
    <path d="M24.4302 24.6384C23.4505 23.5005 23.5787 21.7839 24.7165 20.8042L32.6143 14.0041C33.5625 13.1877 34.9931 13.2946 35.8095 14.2428C38.2588 17.0874 37.9382 21.379 35.0936 23.8283L30.6296 27.6718C29.4918 28.6515 27.7751 28.5233 26.7954 27.3855L24.4302 24.6384Z" fill="#00B825"/>
    <circle cx="38.5156" cy="32.916" r="1.35938" fill="#1E1E1E"/>
    <circle cx="31.2656" cy="32.916" r="1.35938" fill="#1E1E1E"/>
    <ellipse cx="11.7812" cy="34.7285" rx="2.71875" ry="2.26562" fill="#00B825"/>
    <ellipse cx="18.125" cy="34.7285" rx="2.71875" ry="2.26562" fill="#00B825"/>
    <ellipse cx="17.6719" cy="35.1816" rx="1.35938" ry="0.90625" fill="#00841A"/>
    <ellipse cx="11.3281" cy="35.1816" rx="1.35938" ry="0.90625" fill="#00841A"/>
    <path d="M22.6562 39.7129H28.5469C29.3021 39.7129 30.8125 40.3359 30.8125 42.8281C30.8125 45.3203 29.3021 45.528 28.5469 45.3203H25.8281C25.0433 45.3203 23.4736 45.6941 23.4736 47.1895C23.4736 48.6848 24.4688 49.6816 25.8281 49.6816" stroke="#FFBC02" stroke-width="1.8125" stroke-linecap="round"/>
    <path d="M30.4129 15.2363C34.23 20.1566 42.775 17.1817 45.3122 19.8026C45.3124 19.7899 45.3125 19.7807 45.3125 19.7763C45.3125 19.7851 45.3125 19.7939 45.3125 19.8027C45.3125 19.8028 45.3125 19.8029 45.3125 19.803C45.3119 20.358 45.2931 20.8631 45.2931 21.1911C44.433 22.5617 32.9572 23.8524 30.6795 23.2471C23.8593 21.4346 26.3925 16.4263 28.855 14.7961C29.3819 14.4472 30.0255 14.737 30.4129 15.2363Z" fill="#FFBC02"/>
    <path d="M43.5 21.5879C43.5 20.0864 44.7172 18.8691 46.2188 18.8691H56.6406C57.8919 18.8691 58.9062 19.8835 58.9062 21.1348C58.9062 24.8886 55.8632 27.9316 52.1094 27.9316H46.2187C44.7172 27.9316 43.5 26.7144 43.5 25.2129V21.5879Z" fill="#00B825"/>
</svg>
