<svg xmlns="http://www.w3.org/2000/svg" width="58" height="29" viewBox="0 0 58 29" fill="none">
  <mask id="mask0_452_2250" style="mask-type:alpha" maskUnits="userSpaceOnUse" x="0" y="0" width="58" height="29">
    <rect width="58" height="29" fill="white"/>
  </mask>
  <g mask="url(#mask0_452_2250)">
    <path d="M54 29C56.2091 29 58.0283 27.2008 57.7246 25.0126C57.3862 22.5753 56.7383 20.1856 55.7925 17.9022C54.3351 14.3837 52.199 11.1868 49.5061 8.4939C46.8132 5.801 43.6163 3.66488 40.0978 2.20749C36.5794 0.750107 32.8083 -1.66468e-07 29 0C25.1917 1.66468e-07 21.4206 0.750108 17.9022 2.20749C14.3837 3.66488 11.1868 5.80101 8.4939 8.49391C5.801 11.1868 3.66488 14.3837 2.20749 17.9022C1.26168 20.1856 0.613761 22.5753 0.275428 25.0126C-0.0283198 27.2008 1.79086 29 4 29H15.9085C17.9472 29 19.5353 27.2862 20.3154 25.4027C20.7878 24.2623 21.4802 23.226 22.3531 22.3531C23.226 21.4802 24.2623 20.7878 25.4027 20.3154C26.5432 19.843 27.7656 19.5999 29 19.5999C30.2344 19.5999 31.4568 19.843 32.5973 20.3154C33.7377 20.7878 34.774 21.4802 35.6469 22.3531C36.5198 23.226 37.2122 24.2623 37.6846 25.4027C38.4647 27.2862 40.0528 29 42.0915 29H54Z" fill="#FF6565"/>
    <path d="M54 29C56.2091 29 58.0283 27.2008 57.7246 25.0126C57.3862 22.5753 56.7383 20.1856 55.7925 17.9022C54.3351 14.3837 52.199 11.1868 49.5061 8.4939C46.8132 5.801 43.6163 3.66488 40.0978 2.20749C36.5794 0.750107 32.8083 -1.66468e-07 29 0C25.1917 1.66468e-07 21.4206 0.750108 17.9022 2.20749C14.3837 3.66488 11.1868 5.80101 8.4939 8.49391C5.801 11.1868 3.66488 14.3837 2.20749 17.9022C1.26168 20.1856 0.613761 22.5753 0.275428 25.0126C-0.0283198 27.2008 1.79086 29 4 29H17.0858C18.9412 29 20.3864 27.4404 21.0964 25.7262C21.5264 24.6883 22.1565 23.7453 22.9509 22.9509C23.7453 22.1565 24.6883 21.5264 25.7262 21.0964C26.7642 20.6665 27.8766 20.4453 29 20.4453C30.1234 20.4453 31.2358 20.6665 32.2738 21.0964C33.3117 21.5264 34.2547 22.1565 35.0491 22.9509C35.8435 23.7453 36.4736 24.6883 36.9035 25.7262C37.6136 27.4404 39.0588 29 40.9142 29H54Z" fill="#FF6565"/>
    <mask id="mask1_452_2250" style="mask-type:alpha" maskUnits="userSpaceOnUse" x="0" y="0" width="58" height="29">
      <path d="M54 29C56.2091 29 58.0283 27.2008 57.7246 25.0126C57.3862 22.5753 56.7383 20.1856 55.7925 17.9022C54.3351 14.3837 52.199 11.1868 49.5061 8.4939C46.8132 5.801 43.6163 3.66488 40.0978 2.20749C36.5794 0.750107 32.8083 -1.66468e-07 29 0C25.1917 1.66468e-07 21.4206 0.750108 17.9022 2.20749C14.3837 3.66488 11.1868 5.80101 8.4939 8.49391C5.801 11.1868 3.66488 14.3837 2.20749 17.9022C1.26168 20.1856 0.613761 22.5753 0.275428 25.0126C-0.0283198 27.2008 1.79086 29 4 29H17.9942C19.7081 29 21.0431 27.5593 21.699 25.9758C22.0961 25.017 22.6782 24.1459 23.4121 23.4121C24.1459 22.6782 25.017 22.0961 25.9758 21.699C26.9346 21.3019 27.9622 21.0975 29 21.0975C30.0378 21.0975 31.0654 21.3019 32.0242 21.699C32.983 22.0961 33.8541 22.6782 34.5879 23.4121C35.3218 24.1459 35.9039 25.017 36.301 25.9758C36.9569 27.5593 38.2919 29 40.0058 29H54Z" fill="#FF6565"/>
    </mask>
    <g mask="url(#mask1_452_2250)">
      <path d="M55.3636 29.4394C55.3636 26.035 54.6931 22.6639 53.3903 19.5186C52.0874 16.3733 50.1779 13.5155 47.7706 11.1082C45.3633 8.70088 42.5054 6.79132 39.3602 5.4885C36.2149 4.18569 32.8438 3.51514 29.4394 3.51514C26.035 3.51514 22.6639 4.18569 19.5186 5.4885C16.3733 6.79132 13.5155 8.70088 11.1082 11.1082C8.70088 13.5155 6.79132 16.3733 5.4885 19.5186C4.18569 22.6639 3.51514 26.035 3.51514 29.4394H14.2877C14.2877 27.4496 14.6796 25.4794 15.4411 23.6411C16.2025 21.8028 17.3186 20.1325 18.7255 18.7256C20.1325 17.3186 21.8028 16.2025 23.6411 15.4411C25.4794 14.6796 27.4496 14.2877 29.4394 14.2877C31.4291 14.2877 33.3994 14.6796 35.2377 15.4411C37.0759 16.2025 38.7462 17.3186 40.1532 18.7256C41.5602 20.1325 42.6762 21.8028 43.4377 23.6411C44.1991 25.4794 44.591 27.4496 44.591 29.4394H55.3636Z" fill="#FFAA65"/>
    </g>
    <mask id="mask2_452_2250" style="mask-type:alpha" maskUnits="userSpaceOnUse" x="0" y="0" width="58" height="29">
      <path d="M54 29C56.2091 29 58.0283 27.2008 57.7246 25.0126C57.3862 22.5753 56.7383 20.1856 55.7925 17.9022C54.3351 14.3837 52.199 11.1868 49.5061 8.4939C46.8132 5.801 43.6163 3.66488 40.0978 2.20749C36.5794 0.750107 32.8083 -1.66468e-07 29 0C25.1917 1.66468e-07 21.4206 0.750108 17.9022 2.20749C14.3837 3.66488 11.1868 5.80101 8.4939 8.49391C5.801 11.1868 3.66488 14.3837 2.20749 17.9022C1.26168 20.1856 0.613761 22.5753 0.275428 25.0126C-0.0283198 27.2008 1.79086 29 4 29H17.8238C19.5642 29 20.92 27.537 21.586 25.929C21.9893 24.9554 22.5804 24.0707 23.3256 23.3256C24.0707 22.5804 24.9554 21.9893 25.929 21.586C26.9026 21.1827 27.9462 20.9751 29 20.9751C30.0538 20.9751 31.0974 21.1827 32.071 21.586C33.0446 21.9893 33.9293 22.5804 34.6744 23.3256C35.4196 24.0707 36.0107 24.9554 36.414 25.929C37.08 27.537 38.4358 29 40.1762 29H54Z" fill="#FF6565"/>
    </mask>
    <g mask="url(#mask2_452_2250)">
      <path d="M50.9698 29.4395C50.9698 26.6121 50.4129 23.8124 49.3309 21.2002C48.2489 18.588 46.663 16.2145 44.6637 14.2153C42.6644 12.216 40.291 10.6301 37.6788 9.54808C35.0666 8.46608 32.2669 7.90918 29.4395 7.90918C26.6121 7.90918 23.8124 8.46608 21.2002 9.54808C18.588 10.6301 16.2145 12.216 14.2153 14.2153C12.216 16.2145 10.6301 18.588 9.54808 21.2002C8.46608 23.8124 7.90918 26.6121 7.90918 29.4395H16.8559C16.8559 27.787 17.1814 26.1507 17.8138 24.624C18.4462 23.0973 19.3731 21.7101 20.5416 20.5416C21.71 19.3731 23.0973 18.4462 24.624 17.8138C26.1507 17.1814 27.787 16.8559 29.4395 16.8559C31.092 16.8559 32.7283 17.1814 34.255 17.8138C35.7817 18.4462 37.1689 19.3731 38.3374 20.5416C39.5059 21.71 40.4328 23.0973 41.0652 24.624C41.6976 26.1507 42.0231 27.787 42.0231 29.4395H50.9698Z" fill="#FFD165"/>
    </g>
    <mask id="mask3_452_2250" style="mask-type:alpha" maskUnits="userSpaceOnUse" x="0" y="0" width="58" height="29">
      <path d="M54 29C56.2091 29 58.0283 27.2008 57.7246 25.0126C57.3862 22.5753 56.7383 20.1856 55.7925 17.9022C54.3351 14.3837 52.199 11.1868 49.5061 8.4939C46.8132 5.801 43.6163 3.66488 40.0978 2.20749C36.5794 0.750107 32.8083 -1.66468e-07 29 0C25.1917 1.66468e-07 21.4206 0.750108 17.9022 2.20749C14.3837 3.66488 11.1868 5.80101 8.4939 8.49391C5.801 11.1868 3.66488 14.3837 2.20749 17.9022C1.26168 20.1856 0.613761 22.5753 0.275428 25.0126C-0.0283198 27.2008 1.79086 29 4 29H17.7184C19.4752 29 20.8437 27.5232 21.5161 25.9C21.9231 24.9172 22.5198 24.0242 23.272 23.272C24.0242 22.5198 24.9172 21.9231 25.9 21.5161C26.8829 21.109 27.9362 20.8994 29 20.8994C30.0638 20.8994 31.1171 21.109 32.1 21.5161C33.0828 21.9231 33.9758 22.5198 34.728 23.272C35.4802 24.0242 36.0769 24.9172 36.4839 25.9C37.1563 27.5232 38.5248 29 40.2816 29H54Z" fill="#FF6565"/>
    </mask>
    <g mask="url(#mask3_452_2250)">
      <path d="M46.5758 29.4395C46.5758 27.1314 46.1212 24.846 45.238 22.7136C44.3547 20.5812 43.0601 18.6436 41.428 17.0116C39.796 15.3795 37.8584 14.0849 35.726 13.2016C33.5936 12.3184 31.3082 11.8638 29.0001 11.8638C26.692 11.8638 24.4065 12.3184 22.2741 13.2016C20.1417 14.0849 18.2042 15.3795 16.5721 17.0116C14.9401 18.6437 13.6455 20.5812 12.7622 22.7136C11.8789 24.846 11.4243 27.1314 11.4243 29.4395L18.7278 29.4395C18.7278 28.0906 18.9935 26.7548 19.5097 25.5085C20.0259 24.2622 20.7826 23.1298 21.7365 22.1759C22.6903 21.222 23.8227 20.4654 25.069 19.9492C26.3153 19.4329 27.6511 19.1672 29.0001 19.1672C30.3491 19.1672 31.6848 19.4329 32.9311 19.9492C34.1774 20.4654 35.3098 21.222 36.2637 22.1759C37.2176 23.1298 37.9742 24.2622 38.4904 25.5085C39.0067 26.7548 39.2724 28.0905 39.2724 29.4395H46.5758Z" fill="#46D91D"/>
    </g>
    <mask id="mask4_452_2250" style="mask-type:alpha" maskUnits="userSpaceOnUse" x="0" y="0" width="58" height="29">
      <path d="M54 29C56.2091 29 58.0283 27.2008 57.7246 25.0126C57.3862 22.5753 56.7383 20.1856 55.7925 17.9022C54.3351 14.3837 52.199 11.1868 49.5061 8.4939C46.8132 5.801 43.6163 3.66488 40.0978 2.20749C36.5794 0.750107 32.8083 -1.66468e-07 29 0C25.1917 1.66468e-07 21.4206 0.750108 17.9022 2.20749C14.3837 3.66488 11.1868 5.80101 8.4939 8.49391C5.801 11.1868 3.66488 14.3837 2.20749 17.9022C1.26168 20.1856 0.613761 22.5753 0.275428 25.0126C-0.0283198 27.2008 1.79086 29 4 29H17.7184C19.4752 29 20.8437 27.5232 21.5161 25.9C21.9231 24.9172 22.5198 24.0242 23.272 23.272C24.0242 22.5198 24.9172 21.9231 25.9 21.5161C26.8829 21.109 27.9362 20.8994 29 20.8994C30.0638 20.8994 31.1171 21.109 32.1 21.5161C33.0828 21.9231 33.9758 22.5198 34.728 23.272C35.4802 24.0242 36.0769 24.9172 36.4839 25.9C37.1563 27.5232 38.5248 29 40.2816 29H54Z" fill="#FF6565"/>
    </mask>
    <g mask="url(#mask4_452_2250)">
      <path d="M42.182 29.4396C42.182 27.7086 41.841 25.9945 41.1786 24.3952C40.5161 22.7959 39.5452 21.3427 38.3211 20.1187C37.0971 18.8946 35.6439 17.9237 34.0446 17.2612C32.4453 16.5988 30.7312 16.2578 29.0002 16.2578C27.2691 16.2578 25.555 16.5988 23.9557 17.2612C22.3564 17.9237 20.9033 18.8946 19.6792 20.1187C18.4552 21.3427 17.4842 22.7959 16.8218 24.3952C16.1593 25.9945 15.8184 27.7086 15.8184 29.4396H21.8163C21.8163 28.4962 22.0021 27.5621 22.3632 26.6905C22.7242 25.8189 23.2534 25.027 23.9204 24.3599C24.5875 23.6928 25.3795 23.1636 26.251 22.8026C27.1226 22.4416 28.0568 22.2558 29.0002 22.2558C29.9436 22.2558 30.8777 22.4416 31.7493 22.8026C32.6209 23.1636 33.4128 23.6928 34.0799 24.3599C34.747 25.027 35.2762 25.8189 35.6372 26.6905C35.9982 27.5621 36.184 28.4962 36.184 29.4396H42.182Z" fill="#3590FF"/>
    </g>
  </g>
</svg>