<svg xmlns="http://www.w3.org/2000/svg" width="58" height="58" viewBox="0 0 58 58" fill="none">
  <rect width="58" height="58" rx="10.427" fill="url(#paint0_linear_452_2188)"/>
  <mask id="mask0_452_2188" style="mask-type:alpha" maskUnits="userSpaceOnUse" x="0" y="0" width="58" height="58">
    <rect width="58" height="58" rx="10.427" fill="#448FFF"/>
  </mask>
  <g mask="url(#mask0_452_2188)">
    <path d="M42.6943 6.51709C45.9526 6.51709 48.7832 8.36302 50.2227 11.0767C50.8986 10.866 51.6171 10.7524 52.3613 10.7524C56.2549 10.7526 59.4305 13.857 59.6025 17.7515C61.3683 19.0886 62.5107 21.2211 62.5107 23.6235C62.5107 27.6726 59.2648 30.9546 55.2607 30.9546C53.6994 30.9545 52.2546 30.4541 51.0713 29.605C49.8882 30.4537 48.4438 30.9546 46.8828 30.9546C44.1187 30.9544 41.7161 29.3904 40.4932 27.0894C39.175 28.4674 37.3289 29.3257 35.2832 29.3257C31.2792 29.3257 28.0333 26.0436 28.0332 21.9946C28.0332 18.3301 30.6919 15.2932 34.165 14.7495C34.3728 10.1673 38.1117 6.51709 42.6943 6.51709Z" fill="white"/>
  </g>
  <mask id="mask1_452_2188" style="mask-type:alpha" maskUnits="userSpaceOnUse" x="0" y="0" width="58" height="58">
    <rect width="57.3556" height="58" rx="10" fill="url(#paint1_linear_452_2188)"/>
  </mask>
  <g mask="url(#mask1_452_2188)">
    <path d="M8.125 26.3931C11.3474 26.3931 14.147 28.2396 15.5703 30.9536C16.2386 30.743 16.9487 30.6294 17.6846 30.6294C21.5348 30.6295 24.6752 33.7332 24.8457 37.6274C26.5918 38.9645 27.7216 41.0972 27.7217 43.4995C27.7217 47.5484 24.5121 50.8313 20.5527 50.8315C19.0091 50.8315 17.5802 50.3307 16.4102 49.4819C15.2401 50.3307 13.8113 50.8315 12.2676 50.8315C9.53404 50.8315 7.15862 49.2664 5.94922 46.9653C4.64577 48.3437 2.81997 49.2025 0.796875 49.2026C-3.1627 49.2026 -6.37305 45.9197 -6.37305 41.8706C-6.37296 38.2063 -3.74398 35.1693 -0.30957 34.6255C-0.104017 30.0435 3.5935 26.3932 8.125 26.3931Z" fill="white"/>
  </g>
  <defs>
    <linearGradient id="paint0_linear_452_2188" x1="29" y1="0" x2="29" y2="58" gradientUnits="userSpaceOnUse">
      <stop stop-color="#448FFF"/>
      <stop offset="1" stop-color="#3671C8"/>
    </linearGradient>
    <linearGradient id="paint1_linear_452_2188" x1="28.6778" y1="0" x2="28.6778" y2="58" gradientUnits="userSpaceOnUse">
      <stop stop-color="#448FFF"/>
      <stop offset="1" stop-color="#042F70"/>
    </linearGradient>
  </defs>
</svg>